# WaveFront *.obj file (generated by Autodesk ATF)

mtllib Column_001.mtl

g Solid1

v -10.000000 0.000000 0.000000
v -10.000000 0.000000 20.000000
v -10.000000 65.857864 20.000000
v -10.000000 85.857864 0.000000
v -7.071068 90.000000 0.000000
v 0.000000 80.000000 20.000000
v 0.000000 90.000000 0.000000
v 0.000000 92.928932 7.071068
v 10.000000 0.000000 0.000000
v 10.000000 0.000000 20.000000
v 10.000000 79.176079 0.000000
v 10.000000 80.000000 20.000000
v 10.000000 85.275261 14.724736
vt -3.826834 -9.571068 0.000000
vt 3.826834 -2.500000 0.000000
vt -3.826834 -2.500000 0.000000
vt 0.000000 0.000000 0.000000
vt 20.000000 0.000000 0.000000
vt 20.000000 20.000000 0.000000
vt 0.000000 20.000000 0.000000
vt -5.000000 4.142136 0.000000
vt -5.000000 -14.142136 0.000000
vt 5.000000 -14.142136 0.000000
vt 5.000000 -6.681787 0.000000
vt 0.000000 30.000000 0.000000
vt -10.000000 15.857864 0.000000
vt -10.000000 -50.000000 0.000000
vt 10.000000 -50.000000 0.000000
vt 10.000000 30.000000 0.000000
vt 34.142136 20.000000 0.000000
vt 14.142136 0.000000 0.000000
vt 100.000000 0.000000 0.000000
vt 100.000000 20.000000 0.000000
vt 10.000000 35.857864 0.000000
vt 7.071068 40.000000 0.000000
vt -0.000000 40.000000 0.000000
vt -10.000000 29.176079 0.000000
vt -10.000000 -50.000000 0.000000
vt 10.000000 -50.000000 0.000000
vt 79.176079 0.000000 0.000000
vt 85.275261 14.724736 0.000000
vt 80.000000 20.000000 0.000000
vt 0.000000 20.000000 0.000000
vt 0.000000 0.000000 0.000000
vt -13.208031 -0.457870 0.000000
vt -9.633964 13.838400 0.000000
vt -16.237980 17.706944 0.000000
vt -26.960182 7.597954 0.000000
vt 12.247449 -29.567957 0.000000
vt 18.020952 -13.238025 0.000000
vt 7.464522 1.691020 0.000000
vt -2.391463 -1.691020 0.000000
vt -4.082483 -6.473946 0.000000
vn 0.000000 0.923880 -0.382683
vn 0.000000 0.923880 -0.382683
vn 0.000000 0.923880 -0.382683
vn 0.000000 -1.000000 0.000000
vn 0.000000 -1.000000 0.000000
vn 0.000000 -1.000000 0.000000
vn 0.000000 -1.000000 0.000000
vn 0.000000 0.707107 0.707107
vn 0.000000 0.707107 0.707107
vn 0.000000 0.707107 0.707107
vn 0.000000 0.707107 0.707107
vn 0.000000 0.000000 1.000000
vn 0.000000 0.000000 1.000000
vn 0.000000 0.000000 1.000000
vn 0.000000 0.000000 1.000000
vn 0.000000 0.000000 1.000000
vn -1.000000 0.000000 0.000000
vn -1.000000 0.000000 0.000000
vn -1.000000 0.000000 0.000000
vn -1.000000 0.000000 0.000000
vn 0.000000 0.000000 -1.000000
vn 0.000000 0.000000 -1.000000
vn 0.000000 0.000000 -1.000000
vn 0.000000 0.000000 -1.000000
vn 0.000000 0.000000 -1.000000
vn 0.000000 0.000000 -1.000000
vn 1.000000 0.000000 0.000000
vn 1.000000 0.000000 0.000000
vn 1.000000 0.000000 0.000000
vn 1.000000 0.000000 0.000000
vn 1.000000 0.000000 0.000000
vn 0.707107 0.653282 -0.270598
vn 0.707107 0.653282 -0.270598
vn 0.707107 0.653282 -0.270598
vn 0.707107 0.653282 -0.270598
vn -0.707107 0.500000 0.500000
vn -0.707107 0.500000 0.500000
vn -0.707107 0.500000 0.500000
vn -0.707107 0.500000 0.500000
vn -0.707107 0.500000 0.500000
usemtl 96,96,96
f 5/1/1 8/2/2 7/3/3
f 1/4/4 9/5/5 2/7/7
f 2/7/7 9/5/5 10/6/6
f 8/8/8 6/9/9 13/11/11
f 13/11/11 6/9/9 12/10/10
f 3/13/13 2/14/14 6/12/12
f 6/12/12 2/14/14 10/15/15
f 6/12/12 10/15/15 12/16/16
f 4/18/18 1/19/19 3/17/17
f 3/17/17 1/19/19 2/20/20
f 4/21/21 5/22/22 1/26/26
f 1/26/26 5/22/22 7/23/23
f 1/26/26 7/23/23 9/25/25
f 9/25/25 7/23/23 11/24/24
f 11/27/27 13/28/28 9/31/31
f 9/31/31 13/28/28 10/30/30
f 10/30/30 13/28/28 12/29/29
f 11/32/32 7/33/33 13/35/35
f 13/35/35 7/33/33 8/34/34
f 3/36/36 6/37/37 4/40/40
f 4/40/40 6/37/37 8/38/38
f 4/40/40 8/38/38 5/39/39

# 13 vertices
# 40 texture params
# 40 normals
# 22 facets

# 1 groups
