# WaveFront *.obj file (generated by Autodesk ATF)

mtllib Ramp_002.mtl

g Solid1

v 0.000000 0.000000 -2.500000
v 0.000000 0.000000 2.500000
v 0.000000 0.600000 -2.500000
v 0.000000 0.600000 2.500000
v 1.119873 0.600000 -2.500000
v 1.119873 0.600000 2.500000
v 1.651080 0.618836 -2.500000
v 1.651080 0.618836 2.500000
v 2.179619 0.675248 -2.500000
v 2.179619 0.675248 2.500000
v 2.702836 0.768954 -2.500000
v 2.702836 0.768954 2.500000
v 3.218101 0.899483 -2.500000
v 3.218101 0.899483 2.500000
v 3.722827 1.066180 -2.500000
v 3.722827 1.066180 2.500000
v 4.214479 1.268206 -2.500000
v 4.214479 1.268206 2.500000
v 4.690587 1.504547 -2.500000
v 4.690587 1.504547 2.500000
v 5.148760 1.774016 -2.500000
v 5.148760 1.774016 2.500000
v 5.586696 2.075260 -2.500000
v 5.586696 2.075260 2.500000
v 6.002196 2.406766 -2.500000
v 6.002196 2.406766 2.500000
v 6.393173 2.766867 -2.500000
v 6.393173 2.766867 2.500000
v 6.757663 3.153757 -2.500000
v 6.757663 3.153757 2.500000
v 7.093834 3.565490 -2.500000
v 7.093834 3.565490 2.500000
v 7.400000 4.000000 -2.500000
v 7.400000 4.000000 2.500000
v 8.000000 0.000000 -2.500000
v 8.000000 0.000000 2.500000
v 8.000000 4.000000 -2.500000
v 8.000000 4.000000 2.500000
vt 4.754422 -0.462356 0.000000
vt 3.634550 -0.462356 0.000000
vt 3.103342 -0.443521 0.000000
vt 2.574803 -0.387108 0.000000
vt 2.051587 -0.293402 0.000000
vt 1.536322 -0.162873 0.000000
vt 1.031595 0.003823 0.000000
vt 0.539944 0.205849 0.000000
vt 0.063836 0.442191 0.000000
vt -0.394337 0.711660 0.000000
vt -0.832274 1.012904 0.000000
vt -1.247774 1.344409 0.000000
vt -1.638750 1.704511 0.000000
vt -2.003240 2.091400 0.000000
vt -2.339412 2.503134 0.000000
vt -2.645578 2.937644 0.000000
vt -3.245578 2.937644 0.000000
vt -3.245578 -1.062356 0.000000
vt 4.754422 -1.062356 0.000000
vt -2.500000 0.000000 0.000000
vt 2.500000 0.000000 0.000000
vt 2.500000 0.531653 0.000000
vt 2.500000 1.063305 0.000000
vt 2.500000 1.594958 0.000000
vt 2.500000 2.126610 0.000000
vt 2.500000 2.658263 0.000000
vt 2.500000 3.189915 0.000000
vt 2.500000 3.721568 0.000000
vt 2.500000 4.253221 0.000000
vt 2.500000 4.784873 0.000000
vt 2.500000 5.316525 0.000000
vt 2.500000 5.848178 0.000000
vt 2.500000 6.379831 0.000000
vt 2.500000 6.911483 0.000000
vt 2.500000 7.443136 0.000000
vt -2.500000 7.443136 0.000000
vt -2.500000 6.911483 0.000000
vt -2.500000 6.379831 0.000000
vt -2.500000 5.848178 0.000000
vt -2.500000 5.316525 0.000000
vt -2.500000 4.784873 0.000000
vt -2.500000 4.253221 0.000000
vt -2.500000 3.721568 0.000000
vt -2.500000 3.189915 0.000000
vt -2.500000 2.658263 0.000000
vt -2.500000 2.126610 0.000000
vt -2.500000 1.594958 0.000000
vt -2.500000 1.063305 0.000000
vt -2.500000 0.531653 0.000000
vt 0.600000 -2.500000 0.000000
vt 0.600000 2.500000 0.000000
vt 0.000000 2.500000 0.000000
vt 0.000000 -2.500000 0.000000
vt 4.000000 -2.500000 0.000000
vt 4.000000 2.500000 0.000000
vt 0.000000 2.500000 0.000000
vt 0.000000 -2.500000 0.000000
vt 8.000000 -2.500000 0.000000
vt 8.000000 2.500000 0.000000
vt 0.000000 2.500000 0.000000
vt 0.000000 -2.500000 0.000000
vt 0.600000 -2.500000 0.000000
vt 0.600000 2.500000 0.000000
vt 0.000000 2.500000 0.000000
vt 0.000000 -2.500000 0.000000
vt 1.119873 -2.500000 0.000000
vt 1.119873 2.500000 0.000000
vt 0.000000 2.500000 0.000000
vt 0.000000 -2.500000 0.000000
vt -3.634550 -0.462356 0.000000
vt -4.754422 -0.462356 0.000000
vt -4.754422 -1.062356 0.000000
vt 3.245578 -1.062356 0.000000
vt 3.245578 2.937644 0.000000
vt 2.645578 2.937644 0.000000
vt 2.339412 2.503134 0.000000
vt 2.003240 2.091400 0.000000
vt 1.638750 1.704511 0.000000
vt 1.247774 1.344409 0.000000
vt 0.832274 1.012904 0.000000
vt 0.394337 0.711660 0.000000
vt -0.063836 0.442191 0.000000
vt -0.539944 0.205849 0.000000
vt -1.031595 0.003823 0.000000
vt -1.536322 -0.162873 0.000000
vt -2.051587 -0.293402 0.000000
vt -2.574803 -0.387108 0.000000
vt -3.103342 -0.443521 0.000000
vn 0.000000 0.000000 -1.000000
vn 0.000000 0.000000 -1.000000
vn 0.000000 0.000000 -1.000000
vn 0.000000 0.000000 -1.000000
vn 0.000000 0.000000 -1.000000
vn 0.000000 0.000000 -1.000000
vn 0.000000 0.000000 -1.000000
vn 0.000000 0.000000 -1.000000
vn 0.000000 0.000000 -1.000000
vn 0.000000 0.000000 -1.000000
vn 0.000000 0.000000 -1.000000
vn 0.000000 0.000000 -1.000000
vn 0.000000 0.000000 -1.000000
vn 0.000000 0.000000 -1.000000
vn 0.000000 0.000000 -1.000000
vn 0.000000 0.000000 -1.000000
vn 0.000000 0.000000 -1.000000
vn 0.000000 0.000000 -1.000000
vn 0.000000 0.000000 -1.000000
vn 0.000000 1.000000 0.000000
vn 0.000000 1.000000 0.000000
vn -0.070828 0.997489 0.000000
vn -0.141300 0.989967 0.000000
vn -0.211062 0.977473 0.000000
vn -0.279764 0.960069 0.000000
vn -0.347061 0.937843 0.000000
vn -0.412614 0.910906 0.000000
vn -0.476095 0.879394 0.000000
vn -0.537185 0.843464 0.000000
vn -0.595576 0.803299 0.000000
vn -0.650976 0.759098 0.000000
vn -0.703107 0.711084 0.000000
vn -0.751705 0.659499 0.000000
vn -0.796528 0.604601 0.000000
vn -0.837350 0.546667 0.000000
vn -0.837350 0.546667 0.000000
vn -0.796528 0.604601 0.000000
vn -0.751705 0.659499 0.000000
vn -0.703107 0.711084 0.000000
vn -0.650976 0.759098 0.000000
vn -0.595576 0.803299 0.000000
vn -0.537185 0.843464 0.000000
vn -0.476095 0.879394 0.000000
vn -0.412614 0.910906 0.000000
vn -0.347061 0.937843 0.000000
vn -0.279764 0.960069 0.000000
vn -0.211062 0.977473 0.000000
vn -0.141300 0.989967 0.000000
vn -0.070828 0.997489 0.000000
vn 0.000000 1.000000 0.000000
vn 0.000000 1.000000 0.000000
vn 0.000000 1.000000 0.000000
vn 0.000000 1.000000 0.000000
vn 1.000000 0.000000 0.000000
vn 1.000000 0.000000 0.000000
vn 1.000000 0.000000 0.000000
vn 1.000000 0.000000 0.000000
vn 0.000000 -1.000000 0.000000
vn 0.000000 -1.000000 0.000000
vn 0.000000 -1.000000 0.000000
vn 0.000000 -1.000000 0.000000
vn -1.000000 0.000000 0.000000
vn -1.000000 0.000000 0.000000
vn -1.000000 0.000000 0.000000
vn -1.000000 0.000000 0.000000
vn 0.000000 1.000000 0.000000
vn 0.000000 1.000000 0.000000
vn 0.000000 1.000000 0.000000
vn 0.000000 1.000000 0.000000
vn 0.000000 0.000000 1.000000
vn 0.000000 0.000000 1.000000
vn 0.000000 0.000000 1.000000
vn 0.000000 0.000000 1.000000
vn 0.000000 0.000000 1.000000
vn 0.000000 0.000000 1.000000
vn 0.000000 0.000000 1.000000
vn 0.000000 0.000000 1.000000
vn 0.000000 0.000000 1.000000
vn 0.000000 0.000000 1.000000
vn 0.000000 0.000000 1.000000
vn 0.000000 0.000000 1.000000
vn 0.000000 0.000000 1.000000
vn 0.000000 0.000000 1.000000
vn 0.000000 0.000000 1.000000
vn 0.000000 0.000000 1.000000
vn 0.000000 0.000000 1.000000
vn 0.000000 0.000000 1.000000
vn 0.000000 0.000000 1.000000
usemtl 96,96,96
f 3/1/1 5/2/2 1/19/19
f 1/19/19 5/2/2 7/3/3
f 1/19/19 7/3/3 9/4/4
f 1/19/19 9/4/4 35/18/18
f 35/18/18 9/4/4 11/5/5
f 35/18/18 11/5/5 13/6/6
f 13/6/6 15/7/7 35/18/18
f 35/18/18 15/7/7 17/8/8
f 35/18/18 17/8/8 19/9/9
f 19/9/9 21/10/10 35/18/18
f 35/18/18 21/10/10 23/11/11
f 35/18/18 23/11/11 25/12/12
f 25/12/12 27/13/13 35/18/18
f 35/18/18 27/13/13 29/14/14
f 35/18/18 29/14/14 37/17/17
f 37/17/17 29/14/14 31/15/15
f 37/17/17 31/15/15 33/16/16
f 6/21/21 8/22/22 5/20/20
f 5/20/20 8/22/22 7/49/49
f 7/49/49 8/22/22 10/23/23
f 7/49/49 10/23/23 9/48/48
f 9/48/48 10/23/23 12/24/24
f 9/48/48 12/24/24 11/47/47
f 11/47/47 12/24/24 14/25/25
f 11/47/47 14/25/25 13/46/46
f 13/46/46 14/25/25 16/26/26
f 13/46/46 16/26/26 15/45/45
f 15/45/45 16/26/26 18/27/27
f 15/45/45 18/27/27 17/44/44
f 17/44/44 18/27/27 20/28/28
f 17/44/44 20/28/28 19/43/43
f 19/43/43 20/28/28 22/29/29
f 19/43/43 22/29/29 21/42/42
f 21/42/42 22/29/29 24/30/30
f 21/42/42 24/30/30 23/41/41
f 23/41/41 24/30/30 26/31/31
f 23/41/41 26/31/31 25/40/40
f 25/40/40 26/31/31 28/32/32
f 25/40/40 28/32/32 27/39/39
f 27/39/39 28/32/32 29/38/38
f 29/38/38 28/32/32 30/33/33
f 29/38/38 30/33/33 31/37/37
f 31/37/37 30/33/33 32/34/34
f 31/37/37 32/34/34 34/35/35
f 34/35/35 33/36/36 31/37/37
f 34/51/51 38/52/52 33/50/50
f 33/50/50 38/52/52 37/53/53
f 38/55/55 36/56/56 37/54/54
f 37/54/54 36/56/56 35/57/57
f 36/59/59 2/60/60 35/58/58
f 35/58/58 2/60/60 1/61/61
f 2/63/63 4/64/64 1/62/62
f 1/62/62 4/64/64 3/65/65
f 4/67/67 6/68/68 3/66/66
f 3/66/66 6/68/68 5/69/69
f 4/71/71 2/72/72 6/70/70
f 6/70/70 2/72/72 8/88/88
f 8/88/88 2/72/72 10/87/87
f 10/87/87 2/72/72 36/73/73
f 10/87/87 36/73/73 12/86/86
f 12/86/86 36/73/73 14/85/85
f 14/85/85 36/73/73 16/84/84
f 16/84/84 36/73/73 18/83/83
f 18/83/83 36/73/73 20/82/82
f 20/82/82 36/73/73 22/81/81
f 22/81/81 36/73/73 24/80/80
f 24/80/80 36/73/73 26/79/79
f 26/79/79 36/73/73 28/78/78
f 28/78/78 36/73/73 30/77/77
f 30/77/77 36/73/73 38/74/74
f 30/77/77 38/74/74 32/76/76
f 32/76/76 38/74/74 34/75/75

# 38 vertices
# 88 texture params
# 88 normals
# 72 facets

# 1 groups
